PathFileType	4	(X/Y/Z)	PS_ngait_og_ss1.trc	
DataRate	CameraRate	NumFrames	NumMarkers	Units	OrigDataRate	OrigDataStartFrame	OrigNumFrames	
120.00	120.00	11	36	mm	120.00	651	132	
Frame#	Time	Sternum			Neck			RShoulder			LShoulder			Xiphoid			Thoracic			RAsis			LAsis			RPsis			LPsis			LThighSuperior			LThighInferior			LThighLateral			LShankSuperior			LShankInferior			LShankLateral			RThighSuperior			RThighInferior			RThighLateral			RShankSuperior			RShankInferior			RShankLateral			RHeel			RToe			RMidfootLateral			RHindfoot			LHeel			LToe			LMidfootMedial			LMidfootLateral			LHindfoot			LMidfootSuperior			LToeMedial			LToeLateral			Sacral			RMidfootSuperior			
		X1	Y1	Z1	X2	Y2	Z2	X3	Y3	Z3	X4	Y4	Z4	X5	Y5	Z5	X6	Y6	Z6	X7	Y7	Z7	X8	Y8	Z8	X9	Y9	Z9	X10	Y10	Z10	X11	Y11	Z11	X12	Y12	Z12	X13	Y13	Z13	X14	Y14	Z14	X15	Y15	Z15	X16	Y16	Z16	X17	Y17	Z17	X18	Y18	Z18	X19	Y19	Z19	X20	Y20	Z20	X21	Y21	Z21	X22	Y22	Z22	X23	Y23	Z23	X24	Y24	Z24	X25	Y25	Z25	X26	Y26	Z26	X27	Y27	Z27	X28	Y28	Z28	X29	Y29	Z29	X30	Y30	Z30	X31	Y31	Z31	X32	Y32	Z32	X33	Y33	Z33	X34	Y34	Z34	X35	Y35	Z35	X36	Y36	Z36	

34	0.275	427.85382	1452.13452	147.00996	264.48218	1553.20850	144.78941	307.97733	1542.20581	307.16010	299.46033	1539.78870	6.02829	459.19406	1294.56287	160.32140	180.43874	1336.36951	153.98775	360.18280	1027.59473	300.55338	384.17233	1025.81421	25.81038	178.44948	1057.31750	205.03596	181.43689	1048.42554	101.02113	328.47003	847.44476	-23.07849	368.60330	619.03369	20.65281	434.19476	727.83942	64.26976	370.73746	380.80215	24.96096	334.00668	183.41679	60.58305	385.85645	277.36438	97.16811	347.28326	834.86298	348.28036	399.04843	604.38861	342.18018	449.92007	767.54419	288.07224	337.86700	482.41205	352.36093	179.48952	288.85995	311.20511	306.63727	355.12766	274.55334	41.53196	254.58264	257.03616	275.32437	43.60089	262.88062	181.43153	85.74424	328.01981	142.89058	120.34866	320.41556	231.63962	62.26428	110.33140	548.70142	61.02522	79.77570	453.56558	36.08077	141.02351	444.78348	32.92215	23.47322	390.04895	31.86260	36.58733	424.82477	97.22523	92.22021	495.48428	37.49442	133.25598	488.46140	43.20271	29.63390	179.94319	1052.87158	153.02855	176.11269	185.39932	269.84717 
35	0.283	436.16705	1452.99377	146.74243	272.83664	1554.09827	144.70865	316.36740	1542.84497	307.09393	307.78345	1541.12939	5.95594	467.49017	1295.55518	159.73074	188.79895	1337.25415	153.65656	368.68677	1028.43005	300.12067	392.24411	1026.87793	25.20562	186.81546	1058.29468	204.91156	189.67969	1049.38721	100.90395	335.54721	847.39160	-22.88927	372.55298	618.66144	20.59281	439.17200	727.17621	64.39648	372.80353	380.50488	24.86388	334.81027	183.35783	60.79771	386.74170	276.89444	97.07266	360.77682	837.37964	348.17471	412.52707	606.86151	341.54947	461.00592	770.17426	287.58218	354.07895	482.99753	352.36343	202.02127	284.94562	311.74304	324.51920	354.03259	273.22980	63.68318	245.07253	257.41702	305.94839	43.47445	263.00162	210.80208	82.69197	328.61209	170.77425	115.69263	320.99301	232.23784	60.91563	111.15961	548.82330	60.87384	79.78540	453.58279	36.03103	141.06332	444.80081	32.89111	23.45519	390.08066	31.74227	36.64054	424.93265	97.13087	92.25015	495.56989	37.40789	133.25806	488.56546	43.13400	29.63571	188.24757	1053.84094	152.90776	203.04858	181.41304	270.50580 
36	0.292	444.58270	1453.61426	146.37778	281.23157	1554.91797	144.51950	324.82516	1543.41553	306.93185	316.06680	1542.30786	5.83970	475.73032	1296.05786	159.20003	197.22310	1338.05579	153.42294	376.82346	1029.05505	299.42929	400.18539	1027.26416	24.74206	194.92189	1059.16443	204.34987	197.80937	1050.38000	100.76478	342.20755	847.78857	-22.83598	376.08582	618.73920	20.39690	444.04102	726.48828	64.28933	374.29279	380.28918	24.78513	335.40338	183.30089	60.69150	387.81546	276.52551	97.04323	374.08524	839.82361	347.83331	425.82053	609.26160	340.68295	471.81204	772.92981	286.95569	370.46646	483.33258	352.16174	223.34840	280.25165	311.52759	342.73441	352.86588	272.02560	86.66496	235.11894	257.72052	336.54935	43.22658	263.55060	240.72702	79.71373	329.09628	199.28397	110.71863	321.51151	232.70334	59.95278	111.77197	548.88885	60.68704	79.71676	453.51178	35.87248	140.88998	444.83298	32.84761	23.42430	390.46970	31.30252	36.74930	425.06589	96.99968	92.36349	495.55093	37.22466	133.10669	488.66971	43.05677	29.48200	196.36563	1054.77222	152.55733	230.61055	177.10875	271.10541 
37	0.300	452.88742	1454.24084	146.01924	289.66296	1555.64417	144.31538	333.22662	1543.86841	306.79144	324.49109	1543.30139	5.73502	483.98373	1296.50525	158.58118	205.58553	1338.80322	153.17137	384.49957	1029.45740	298.66891	408.10587	1027.17383	24.52906	202.75188	1059.91492	203.39891	205.94868	1051.32983	100.81532	349.01978	848.01318	-22.71110	379.77051	618.64471	20.27257	448.86255	725.70923	64.37543	375.82318	380.09186	24.65121	335.52927	183.82144	60.38336	388.90543	276.33017	96.98914	387.01117	842.05450	347.40143	438.73157	611.44873	339.72601	482.52893	775.66815	286.36060	386.50995	483.22482	351.75046	245.64815	275.36438	311.57297	362.09387	351.36734	270.67654	109.69429	224.92183	258.00040	367.47827	43.43607	263.52271	271.11450	76.32001	329.45215	228.59000	105.38509	321.79547	232.80145	59.97464	111.83224	548.96198	60.47421	79.65321	453.71030	35.99563	140.76573	444.98489	32.78471	23.42614	390.36557	31.27347	36.49453	425.01703	97.01966	92.21024	495.58148	37.20734	133.08615	488.70395	42.88021	29.45238	204.35028	1055.62231	152.10712	258.96890	172.44496	271.47055 
38	0.308	461.17844	1454.68762	145.66376	298.16635	1556.28149	144.06700	341.78525	1544.22705	306.77765	332.83469	1544.12280	5.62042	492.14267	1296.93982	157.86664	214.05696	1339.51892	152.72549	393.59323	1030.38892	298.93100	416.07925	1028.13855	24.15859	211.43874	1060.78638	204.42989	214.01907	1051.80811	100.84553	355.82932	848.20856	-22.57815	383.45251	618.52087	20.15631	453.52762	724.75995	64.11586	377.85330	379.76187	24.51286	336.04062	183.84848	59.92802	389.81290	275.75037	96.79069	399.45145	844.10767	346.89938	451.15692	613.45813	338.69894	493.01840	778.10126	285.70972	402.30579	482.96652	351.25027	268.29181	270.30750	311.77975	377.45020	348.98141	268.45129	134.01877	214.28879	258.66705	398.92035	44.47409	263.03494	301.65759	73.24771	329.98770	257.85315	100.17807	322.41519	232.83493	60.14786	111.79829	548.97443	60.30536	79.59853	454.43011	36.48023	141.04608	444.99072	32.78808	23.44095	390.28082	31.38397	36.39518	425.13123	96.83376	92.26080	495.81894	37.42213	133.42004	488.38919	42.68417	29.80271	212.72890	1056.29724	152.63771	287.28430	167.90767	272.17139 
39	0.317	469.47571	1455.07495	145.37666	306.62006	1556.72241	143.88548	350.13550	1544.52722	306.54245	341.30466	1544.78259	5.53411	500.43970	1297.25317	157.24193	222.38531	1339.96606	152.77209	402.85614	1031.29846	299.34976	423.88748	1029.01440	23.79561	220.21280	1061.66980	205.80862	221.96152	1052.00146	101.02518	362.64450	848.37799	-22.43827	387.14017	618.37122	20.04698	458.33618	723.73492	64.05810	379.33536	379.63638	24.40094	336.92245	183.69348	60.10284	390.79379	275.19891	96.53220	411.67056	845.82532	346.49442	463.36115	615.13190	337.76883	503.38754	780.22260	285.07214	417.92715	482.30600	350.63617	291.15872	265.07599	311.98856	399.29892	349.07791	269.35565	158.91669	202.84796	260.64240	430.76227	45.27826	263.08960	332.66779	70.09273	330.53464	287.46744	95.13871	322.91962	232.83902	60.20227	111.80371	549.08514	60.11512	79.54986	453.84134	35.72166	141.00351	444.95062	32.71052	23.42491	390.27100	31.38454	36.42538	425.17493	96.69620	92.25570	495.81973	36.89249	133.11670	488.64191	42.69706	29.51059	221.08716	1056.83557	153.41690	315.95081	163.53804	272.75699 
40	0.325	477.80255	1455.19214	144.97601	315.13571	1557.05054	143.63820	358.58813	1544.67920	306.42694	349.72034	1545.34863	5.30069	508.67355	1297.24121	156.93269	230.79074	1340.36853	152.73483	411.72961	1031.97266	299.50006	432.09189	1029.82227	23.40571	228.83859	1062.24243	206.41847	230.24701	1052.35022	100.97585	369.60901	847.96130	-22.49668	390.84235	618.19934	19.94411	462.91345	722.80652	64.00987	381.01764	379.47498	24.13774	337.57587	183.63318	60.23186	392.03702	275.15048	96.58492	423.57291	847.58234	346.16949	475.24857	616.84509	336.91891	513.42352	782.20593	284.52872	433.04474	482.03741	349.99997	314.22739	259.60303	312.09653	419.79288	348.39969	269.40088	183.69954	192.72968	261.19183	463.07825	46.55624	263.47403	363.88892	67.01824	330.87003	317.81183	89.75858	323.37390	232.86977	60.29842	111.81030	549.21570	59.84665	79.48960	453.58438	35.41580	140.93626	444.88705	32.59104	23.27023	390.28677	31.36763	36.42088	425.23013	96.55841	92.25256	495.84134	36.61329	132.94325	488.82556	42.57665	29.33505	229.54280	1057.29639	153.69716	345.34753	158.82767	273.29242 
41	0.333	486.34085	1455.35779	144.73802	323.71631	1557.28650	143.33360	367.10529	1544.80286	306.31262	358.24628	1545.64209	5.31109	516.91925	1297.25305	156.69159	239.33563	1340.63635	152.67284	420.16452	1032.10217	299.44061	440.14709	1029.96631	23.23763	237.19200	1062.66150	206.61778	238.41269	1052.61243	101.05524	375.47345	848.89252	-23.20447	394.56799	618.00867	19.84806	467.94739	722.10059	64.40432	382.84344	379.09238	24.09000	338.11499	183.74054	59.97895	393.12427	274.81943	96.42556	435.21707	848.98822	345.66223	486.87784	618.20721	335.88657	523.53357	784.14563	283.78726	447.96823	481.33200	349.02679	337.61496	254.22121	312.26642	439.22894	346.84277	268.84613	209.99913	181.29945	261.21481	494.69614	47.43131	263.00964	395.31039	64.01006	331.31512	348.21542	84.83571	323.89685	232.87402	60.28072	111.86887	549.24323	59.65000	79.40999	453.80460	35.62407	140.95018	444.88339	32.42522	23.08471	390.51712	31.03848	36.51231	425.24292	96.48238	92.24818	495.89453	36.68056	133.00314	488.75931	42.33087	29.38556	237.80234	1057.63696	153.83652	374.80344	154.57452	273.89651 
42	0.342	494.67084	1455.34521	144.42757	332.23914	1557.42505	143.10905	375.52216	1544.82983	306.13324	366.77179	1545.69995	5.15879	525.27026	1297.12109	156.25067	247.80116	1340.82129	152.57153	428.46091	1032.05090	299.15393	448.10672	1029.98657	23.11873	245.42104	1062.93604	206.57120	246.51807	1052.84167	101.24934	381.94315	849.26410	-23.52053	398.24539	617.88831	19.79455	473.07190	721.54291	64.44404	384.51743	378.89059	23.84163	338.77527	183.64151	59.84321	394.17572	274.26212	96.26090	446.40082	850.33789	345.24100	498.04663	619.51294	334.94025	533.50116	786.00366	283.09875	462.51654	480.71866	348.40250	361.00473	248.92284	312.40445	458.81210	345.54807	268.47662	236.69482	170.05762	261.92096	526.73804	48.98410	263.02048	427.08911	61.29075	331.37491	378.90659	80.12067	324.35190	232.93169	60.19664	111.85423	549.41205	59.36135	79.40117	453.69568	35.42359	140.81364	444.76892	32.41077	22.96897	390.33661	31.15040	36.40278	425.31375	96.34367	92.16920	495.91885	36.42284	132.86336	488.97055	42.27832	29.24446	245.96956	1057.88879	153.91026	404.54684	150.52922	274.43268 
43	0.350	503.26373	1455.41431	144.38454	340.80246	1557.44592	142.81575	384.10721	1544.79126	306.04538	375.39865	1545.68921	5.10931	533.75726	1297.28833	156.12840	256.35129	1340.85315	152.56311	436.69919	1031.62817	298.85736	456.13367	1029.69043	23.00416	253.65506	1062.99609	206.44128	254.71179	1053.04102	101.41940	388.63232	849.17786	-23.58290	402.23993	617.40454	19.86244	478.07684	720.77405	64.60886	386.35443	378.72668	23.65849	339.70953	183.46710	60.11680	395.13599	273.75632	95.98329	457.18753	851.36639	344.83008	508.81842	620.49762	334.00424	543.26105	787.62408	282.44669	476.56357	479.93103	347.33838	384.58911	243.64589	312.59814	478.41623	344.24149	268.14063	263.73547	159.11339	262.47311	559.26184	51.51332	263.65976	458.90790	58.96165	331.90976	409.91394	75.48235	324.72702	232.98979	60.13511	111.76035	549.49921	59.06021	79.39829	453.50598	35.18679	140.74260	444.79056	32.31524	22.90091	390.51450	30.88699	36.37482	425.35648	96.27414	92.06859	495.88989	36.15955	132.76030	489.10211	42.12763	29.13719	254.18343	1058.01855	153.93034	434.60645	146.56062	274.88898 
44	0.358	511.85165	1455.27417	144.44751	349.48050	1557.34180	142.65578	392.64505	1544.73926	305.99802	384.08020	1545.53711	5.00615	542.19891	1296.91785	156.15532	265.02960	1340.83289	152.60782	445.07196	1031.13733	298.66891	464.14731	1029.35815	22.96687	261.99667	1063.10876	206.52184	262.86841	1053.08801	101.63155	395.23599	849.19690	-23.79803	405.93063	617.36609	19.52792	483.11276	719.84796	64.61115	388.30264	378.67300	23.72321	340.18866	183.61739	59.97055	396.96048	274.05048	96.46899	467.73605	852.21008	344.44449	519.35205	621.29749	333.09357	552.78442	789.03613	281.69247	490.35181	478.94302	346.41235	408.42468	238.43784	312.75504	498.13275	343.06308	268.11554	291.21255	148.61177	262.95987	591.75049	54.36857	264.26324	490.80154	57.08259	332.20819	441.21265	70.98409	325.03638	233.22667	59.67864	111.13984	549.56268	58.86662	79.33409	453.34720	35.03254	140.73045	444.81729	32.29478	22.83575	390.31070	31.08792	36.27953	425.38800	96.18940	92.04249	495.90271	35.99705	132.65851	489.16293	42.05014	29.03720	262.43253	1058.09839	154.07669	464.95743	142.73210	275.27948 
